<svg xmlns="http://www.w3.org/2000/svg" viewBox="0 0 200 60" width="200" height="60">
  <!-- Hedgehog body -->
  <circle cx="30" cy="30" r="20" fill="#059669"/>
  
  <!-- Hedgehog spikes -->
  <path d="M30,10 L35,15 L30,20" fill="#0f172a"/>
  <path d="M40,15 L45,20 L40,25" fill="#0f172a"/>
  <path d="M45,25 L50,30 L45,35" fill="#0f172a"/>
  <path d="M40,35 L35,40 L30,35" fill="#0f172a"/>
  <path d="M25,35 L20,30 L25,25" fill="#0f172a"/>
  <path d="M20,25 L15,20 L20,15" fill="#0f172a"/>
  <path d="M25,15 L30,10 L35,15" fill="#0f172a"/>
  
  <!-- Hedgehog face -->
  <circle cx="25" cy="25" r="2" fill="white"/>
  <circle cx="35" cy="25" r="2" fill="white"/>
  <path d="M28,32 Q30,35 32,32" stroke="white" stroke-width="1.5" fill="none"/>
  
  <!-- Text: HedgeCo.Net -->
  <text x="60" y="35" font-family="Arial, sans-serif" font-size="24" font-weight="bold" fill="#1e293b">HedgeCo.Net</text>
  <text x="60" y="50" font-family="Arial, sans-serif" font-size="12" fill="#64748b">Alternative Investment Database</text>
</svg>